<svg xmlns:dc="http://purl.org/dc/elements/1.1/" xmlns:cc="http://creativecommons.org/ns#"
    xmlns:rdf="http://www.w3.org/1999/02/22-rdf-syntax-ns#" xmlns:svg="http://www.w3.org/2000/svg"
    xmlns="http://www.w3.org/2000/svg"
    xmlns:sodipodi="http://sodipodi.sourceforge.net/DTD/sodipodi-0.dtd"
    xmlns:inkscape="http://www.inkscape.org/namespaces/inkscape" version="1.1" x="0px" y="0px"
    viewBox="0 0 100 100">
    <g transform="translate(0,-952.36218)">
        <g transform="matrix(1.4782638,0,0,1.4999911,55.913055,-442.67252)">
            <path d="M 15,35 C 15,21.192881 26.192881,10 40,10 53.807119,10 65,21.192881 65,35"
                style="color:#000000;enable-background:accumulate;"
                transform="matrix(0.92,0,0,0.92,-40.8,959.16218)" fill="none" stroke="#000000"
                stroke-width="2.91979122" stroke-linecap="round" stroke-linejoin="round"
                stroke-miterlimit="4" stroke-opacity="1" stroke-dashoffset="0" marker="none"
                visibility="visible" display="inline" overflow="visible" />
            <path style="color:#000000;enable-background:accumulate;"
                d="M 65,35 C 65,48.807119 53.807119,60 40,60 26.192881,60 15,48.807119 15,35 15,21.192881 26.192881,10 40,10 53.807119,10 65,21.192881 65,35 z"
                transform="matrix(0.52,0,0,0.52,-24.8,930.16218)" fill="none" stroke="#000000"
                stroke-width="5.16578531" stroke-linecap="round" stroke-linejoin="round"
                stroke-miterlimit="4" stroke-opacity="1" stroke-dasharray="none"
                stroke-dashoffset="0" marker="none" visibility="visible" display="inline"
                overflow="visible" />
        </g>
    </g>
</svg>